<?xml version="1.0" encoding="UTF-8" standalone="no"?>
<!DOCTYPE svg PUBLIC "-//W3C//DTD SVG 20010904//EN" "http://www.w3.org/TR/2001/REC-SVG-20010904/DTD/svg10.dtd">
<!-- Created with Sodipodi ("http://www.sodipodi.com/") -->
<svg
   sodipodi:version="0.32"
   width="800"  height="444"
   sodipodi:docbase="/home/petr/"
   sodipodi:docname="/home/petr/triquetra4.svg"
   xmlns="http://www.w3.org/2000/svg"
   xmlns:sodipodi="http://sodipodi.sourceforge.net/DTD/sodipodi-0.dtd"
   xmlns:xlink="http://www.w3.org/1999/xlink"
   sodipodi:author="Aqua78@email.cz">
      <g
     transform="translate(-113.77001,-121.93147)"
     style="stroke:#aaa;stroke-opacity:1;fill:white;fill-opacity:1;fill-rule:nonzero;stroke-miterlimit:10;stroke-linejoin:miter;stroke-linecap:butt;stroke-dasharray:none;">
    <path
       style="fill:white;stroke:#aaa;stroke-width:7.5;"
       d="M 370.152 195.447 C 334.302 181.495 300.2 175.482 260.446 169.457 C 230.109 165.173 221.877 163.914 178.482 159.833 C 161.677 158.412 156.096 155.574 135.114 150.031 C 169.059 184.604 194.074 205.976 217.522 236.868 C 240.368 266.449 264.494 292.551 295.868 319.986 C 320.46 341.651 361.843 355.469 403.049 344.274 C 424.244 338.727 441.248 326.639 459.27 311.718 C 448.611 298.928 440.108 291.37 427.876 280.325 C 405.785 300.285 385.295 303.057 353.874 299.099 C 329.175 296.311 296.273 269.279 288.762 237.886 C 310.273 233.429 324.977 232.46 344.161 237.305 C 350.897 221.15 358.114 208.043 370.152 195.447 z "
       sodipodi:nodetypes="csscsssccsccc" />
    <path
       style="fill:white;stroke:#aaa;stroke-width:7.5;"
       d="M 516.315 176.764 C 494.254 163.472 481.533 159.756 452.598 159.087 C 437.292 158.516 396.496 169.432 377.37 188.686 C 363.496 202.241 335.03 229.793 336.263 293.099 C 354.899 301.732 365.313 300.91 381.482 300.088 C 376.412 273.916 384.092 243.957 401.624 226.094 C 420.437 206.514 449.31 195.537 482.607 208.417 C 491.788 195.811 501.379 186.082 516.315 176.764 z "
       sodipodi:nodetypes="cssccscc" />
    <path
       style="fill:white;stroke:#aaa;stroke-width:7.5;"
       d="M 414.027 215.887 C 398.04 227.912 392.227 235.286 386.123 251.381 C 435.886 278.188 448.441 303.542 485.123 337.035 C 496.359 325.458 505.561 316.498 516.507 305.793 C 483.413 273.305 455.842 240.527 414.027 215.887 z "
       sodipodi:nodetypes="ccccc" />
    <path
       style="fill:white;stroke:#aaa;stroke-width:7.5;"
       d="M 456.072 246.605 C 468.184 257.942 475.936 265.209 487.466 276.255 C 505.1 253.291 522.757 220.791 545.892 209.689 C 566.211 199.648 599.279 198.547 616.526 215.794 C 631.351 208.817 646.175 201.55 661 194.574 C 647.144 180.912 628.397 168.649 610.132 163.472 C 580.351 154.74 545.699 159.855 520.894 173.646 C 494.165 188.054 474.579 218.507 456.072 246.605 z "
       sodipodi:nodetypes="ccsccssc" />
    <path
       style="fill:white;stroke:#aaa;stroke-width:7.5;"
       d="M 353.173 346.308 C 371.485 349.021 384.566 348.536 402.879 344.855 C 450.84 401.924 504.615 406.671 535.718 402.699 C 541.334 412.497 540.416 437.716 536.009 446.592 C 495.314 449.014 457.444 438.877 426.714 421.594 C 397.718 405.56 364.993 376.054 353.173 346.308 z "
       sodipodi:nodetypes="ccccsc" />
    <path
       style="fill:white;stroke:#aaa;stroke-width:7.5;"
       d="M 544.846 278.205 C 492.45 331.091 466.555 349.243 456.252 387.706 C 470.872 396.635 480.487 398.793 497.462 401.835 C 502.27 370.143 537.396 347.59 571.934 309.716 C 559.851 296.954 555.428 288.908 544.846 278.205 z "
       sodipodi:nodetypes="ccccc" />
    <path
       style="fill:white;stroke:#aaa;stroke-width:7.5;"
       d="M 548.386 208.736 C 533.962 215.408 525.721 225.024 515.419 237.877 C 551.82 284.092 576.448 329.717 629.923 343.258 C 638.859 331.181 649.524 319.709 650.808 300.273 C 632.557 298.262 612.695 287.644 603.063 279.787 C 595.556 273.893 577.527 248.867 548.386 208.736 z "
       sodipodi:nodetypes="ccccsc" />
    <path
       style="fill:white;stroke:#aaa;stroke-width:7.5;"
       d="M 449.586 432.517 C 464.166 439.178 482.42 442.508 495.793 445.422 C 494.96 454.996 510.363 475.394 515.775 479.557 C 525.35 472.479 538.294 450.569 539.503 429.603 C 541.473 404.188 529.79 383.534 515.775 367.576 C 525.488 357.169 535.617 345.514 546.996 336.772 C 572.666 364.801 579.698 390.302 582.381 417.114 C 584.27 440.58 575.211 472.099 564.48 489.548 C 552.227 508.729 531.594 522.989 515.775 540.75 C 499.817 524.654 484.244 510.733 471.233 493.711 C 459.967 479.518 448.754 455.413 449.586 432.517 z "
       sodipodi:nodetypes="cccsccsscsc" />
    <path
       style="fill:white;stroke:#aaa;stroke-width:7.5;"
       d="M 647.32 251.017 C 656.062 276.549 654.774 305.573 642.741 325.532 C 628.596 349.409 602.778 375.036 578.218 388.635 C 580.854 404.176 583.907 418.225 582.797 431.685 C 612.908 422.388 646.431 392.848 664.215 370.613 C 690.63 336.867 702.964 285.43 688.949 236.031 C 673.963 239.223 661.474 243.663 647.32 251.017 z "
       sodipodi:nodetypes="csccscc" />
    <path
       style="fill:white;stroke:#aaa;stroke-width:7.5;"
       d="M 575.806 245.519 C 585.043 259.091 589.048 269.169 604.444 279.74 C 625.952 259.065 651.439 246.55 677.709 238.112 C 697.228 231.533 721.558 230.341 743.066 236.447 C 735.157 266.28 714.759 283.625 695.193 292.229 C 691.863 311.517 687.7 327.475 680.623 345.097 C 710.873 341.767 740.275 318.997 760.55 296.808 C 795.14 259.368 817.528 226.183 845.472 196.483 C 857.505 183.882 885.158 156.382 895.426 146.113 C 870.866 153.606 826.049 160.423 773.87 166.095 C 735.237 170.603 677.085 185.243 638.995 203.977 C 617.556 214.521 595.371 230.81 575.806 245.519 z "
       sodipodi:nodetypes="ccscccsscssc" />
  </g>
</svg>
